# xmcd CD database file
#
# Track frame offsets:
#	183
#	10933
#	23308
#	37408
#	52405
#	62658
#	78208
#	92183
#	109233
#	122305
#	134080
#	149078
#	162603
#
# Disc length: 2337 seconds
#
# Revision: 0
# Processed by: cddbd v1.5PL3 Copyright (c) Steve Scherf et al.
# Submitted via: NeoAudio 9.9.9
#
DISCID=bc091f0d
DTITLE=Riverside - Country Band
DYEAR=1900
DGENRE=Country
TTITLE0=Love Is A Burning Thing
TTITLE1=I Fall To Pieces
TTITLE2=Inspiring And Hopefull Idea's
TTITLE3=Crying Time
TTITLE4=On The Road Again
TTITLE5=Somewhere Between
TTITLE6=I'm Driving My Life Away
TTITLE7=Country Road
TTITLE8=D.I.V.O.R.C.E.
TTITLE9=Help Me Make It Through The Night
TTITLE10=Fifty Seven Chevrolet
TTITLE11=The Image Of Me
TTITLE12=Truck Driving Man
EXTD=
EXTT0=
EXTT1=
EXTT2=
EXTT3=
EXTT4=
EXTT5=
EXTT6=
EXTT7=
EXTT8=
EXTT9=
EXTT10=
EXTT11=
EXTT12=
PLAYORDER=
